<?xml version="1.0" encoding="utf-8"?>
<svg version="1.1" xmlns:xlink="http://www.w3.org/1999/xlink" width="23px" height="19px" xmlns="http://www.w3.org/2000/svg">
  <g transform="matrix(1 0 0 1 -14 -11 )">
    <path d="M 6.995833333333333 3.859375  C 7.4430555555555555 4.321180555555554  7.666666666666666 4.881944444444442  7.666666666666666 5.541666666666666  C 7.666666666666666 6.2013888888888875  7.4430555555555555 6.762152777777778  6.995833333333333 7.223958333333334  C 6.5486111111111125 7.68576388888889  6.0055555555555555 7.916666666666666  5.366666666666667 7.916666666666666  C 4.727777777777778 7.916666666666666  4.184722222222223 7.68576388888889  3.7375000000000003 7.223958333333334  C 3.2902777777777783 6.762152777777778  3.0666666666666664 6.2013888888888875  3.0666666666666664 5.541666666666666  C 3.0666666666666664 4.881944444444442  3.2902777777777783 4.321180555555554  3.7375000000000003 3.859375  C 4.184722222222223 3.397569444444442  4.727777777777778 3.166666666666666  5.366666666666667 3.166666666666666  C 6.0055555555555555 3.166666666666666  6.5486111111111125 3.397569444444442  6.995833333333333 3.859375  Z M 14.950000000000001 5.145833333333334  L 19.933333333333334 10.291666666666668  L 19.933333333333334 15.833333333333334  L 3.0666666666666664 15.833333333333334  L 3.0666666666666664 13.458333333333332  L 6.8999999999999995 9.5  L 8.816666666666666 11.479166666666668  L 14.950000000000001 5.145833333333334  Z M 21.352864583333332 1.700846354166666  C 21.27699652777778 1.622504340277776  21.18715277777778 1.583333333333334  21.083333333333332 1.583333333333334  L 1.9166666666666665 1.583333333333334  C 1.8128472222222225 1.583333333333334  1.7230034722222225 1.622504340277776  1.6471354166666665 1.700846354166666  C 1.5712673611111112 1.779188368055554  1.5333333333333332 1.871961805555554  1.5333333333333332 1.979166666666666  L 1.5333333333333332 17.020833333333336  C 1.5333333333333332 17.128038194444446  1.5712673611111112 17.220811631944446  1.6471354166666665 17.299153645833336  C 1.7230034722222225 17.37749565972222  1.8128472222222225 17.416666666666664  1.9166666666666665 17.416666666666664  L 21.083333333333332 17.416666666666664  C 21.18715277777778 17.416666666666664  21.27699652777778 17.37749565972222  21.352864583333332 17.299153645833336  C 21.42873263888889 17.220811631944446  21.46666666666667 17.128038194444446  21.46666666666667 17.020833333333336  L 21.46666666666667 1.979166666666666  C 21.46666666666667 1.871961805555554  21.42873263888889 1.779188368055554  21.352864583333332 1.700846354166666  Z M 22.436979166666667 0.581380208333334  C 22.81232638888889 0.968967013888888  23.000000000000004 1.434895833333334  23 1.979166666666666  L 23 17.020833333333336  C 23.000000000000004 17.565104166666664  22.81232638888889 18.03103298611111  22.436979166666667 18.418619791666664  C 22.061631944444446 18.80620659722222  21.610416666666666 19  21.083333333333332 19  L 1.9166666666666665 19  C 1.3895833333333334 19  0.9383680555555557 18.80620659722222  0.5630208333333333 18.418619791666664  C 0.1876736111111111 18.03103298611111  0 17.565104166666664  0 17.020833333333336  L 0 1.979166666666666  C 0 1.434895833333334  0.1876736111111111 0.968967013888888  0.5630208333333333 0.581380208333334  C 0.9383680555555557 0.1937934027777759  1.3895833333333334 0  1.9166666666666665 0  L 21.083333333333332 0  C 21.610416666666666 0  22.061631944444446 0.1937934027777759  22.436979166666667 0.581380208333334  Z " fill-rule="nonzero" fill="#00a5e4" stroke="none" transform="matrix(1 0 0 1 14 11 )" />
  </g>
</svg>