<?xml version="1.0" encoding="utf-8"?>
<svg version="1.1" xmlns:xlink="http://www.w3.org/1999/xlink" width="71px" height="90px" xmlns="http://www.w3.org/2000/svg">
  <g transform="matrix(1 0 0 1 -375 -335 )">
    <path d="M 3.2272727272727275 0  L 67.77272727272728 0  C 68.64678030303031 0  69.40317234848486 0.31808035714286476  70.0419034090909 0.9542410714285743  C 70.68063446969698 1.5904017857142738  71 2.3437499999999964  71 3.2142857142857126  L 71 86.78571428571429  C 71 87.65625  70.68063446969698 88.40959821428571  70.0419034090909 89.04575892857143  C 69.40317234848486 89.68191964285714  68.64678030303031 90  67.77272727272728 90  L 3.2272727272727275 90  C 2.3532196969696972 90  1.5968276515151516 89.68191964285714  0.9580965909090909 89.04575892857143  C 0.3193655303030303 88.40959821428571  0 87.65625  0 86.78571428571429  L 0 3.2142857142857126  C 0 2.3437499999999964  0.3193655303030303 1.5904017857142738  0.9580965909090909 0.9542410714285743  C 1.5968276515151516 0.31808035714286476  2.3532196969696972 0  3.2272727272727275 0  Z M 26.272017045454547 13.309151785714286  C 25.969460227272727 13.610491071428575  25.81818181818182 13.99553571428571  25.81818181818182 14.464285714285714  L 25.81818181818182 17.678571428571427  C 25.81818181818182 18.14732142857143  25.969460227272727 18.532366071428573  26.272017045454547 18.83370535714286  C 26.574573863636363 19.13504464285714  26.96117424242425 19.28571428571429  27.43181818181818 19.28571428571429  L 30.65909090909091 19.28571428571429  C 31.12973484848485 19.28571428571429  31.516335227272727 19.13504464285714  31.818892045454547 18.83370535714286  C 32.12144886363636 18.532366071428573  32.27272727272727 18.14732142857143  32.27272727272727 17.678571428571427  L 32.27272727272727 14.464285714285714  C 32.27272727272727 13.99553571428571  32.12144886363636 13.610491071428575  31.818892045454547 13.309151785714286  C 31.516335227272727 13.0078125  31.12973484848485 12.857142857142861  30.65909090909091 12.857142857142861  L 27.43181818181818 12.857142857142861  C 26.96117424242425 12.857142857142861  26.574573863636363 13.0078125  26.272017045454547 13.309151785714286  Z M 26.272017045454547 26.16629464285714  C 25.969460227272727 26.467633928571427  25.81818181818182 26.852678571428562  25.81818181818182 27.321428571428573  L 25.81818181818182 30.53571428571429  C 25.81818181818182 31.00446428571428  25.969460227272727 31.389508928571427  26.272017045454547 31.69084821428571  C 26.574573863636363 31.9921875  26.96117424242425 32.14285714285714  27.43181818181818 32.14285714285714  L 30.65909090909091 32.14285714285714  C 31.12973484848485 32.14285714285714  31.516335227272727 31.9921875  31.818892045454547 31.69084821428571  C 32.12144886363636 31.389508928571427  32.27272727272727 31.00446428571428  32.27272727272727 30.53571428571429  L 32.27272727272727 27.321428571428573  C 32.27272727272727 26.852678571428562  32.12144886363636 26.467633928571427  31.818892045454547 26.16629464285714  C 31.516335227272727 25.86495535714286  31.12973484848485 25.71428571428571  30.65909090909091 25.71428571428571  L 27.43181818181818 25.71428571428571  C 26.96117424242425 25.71428571428571  26.574573863636363 25.86495535714286  26.272017045454547 26.16629464285714  Z M 26.272017045454547 39.0234375  C 25.969460227272727 39.324776785714285  25.81818181818182 39.70982142857142  25.81818181818182 40.17857142857142  L 25.81818181818182 43.39285714285714  C 25.81818181818182 43.86160714285714  25.969460227272727 44.246651785714285  26.272017045454547 44.54799107142858  C 26.574573863636363 44.84933035714286  26.96117424242425 45  27.43181818181818 45  L 30.65909090909091 45  C 31.12973484848485 45  31.516335227272727 44.84933035714286  31.818892045454547 44.54799107142858  C 32.12144886363636 44.246651785714285  32.27272727272727 43.86160714285714  32.27272727272727 43.39285714285714  L 32.27272727272727 40.17857142857142  C 32.27272727272727 39.70982142857142  32.12144886363636 39.324776785714285  31.818892045454547 39.0234375  C 31.516335227272727 38.722098214285715  31.12973484848485 38.57142857142858  30.65909090909091 38.57142857142858  L 27.43181818181818 38.57142857142858  C 26.96117424242425 38.57142857142858  26.574573863636363 38.722098214285715  26.272017045454547 39.0234375  Z M 26.272017045454547 51.880580357142854  C 25.969460227272727 52.181919642857146  25.81818181818182 52.566964285714285  25.81818181818182 53.035714285714285  L 25.81818181818182 56.25  C 25.81818181818182 56.71874999999999  25.969460227272727 57.103794642857146  26.272017045454547 57.40513392857142  C 26.574573863636363 57.706473214285715  26.96117424242425 57.857142857142854  27.43181818181818 57.857142857142854  L 30.65909090909091 57.857142857142854  C 31.12973484848485 57.857142857142854  31.516335227272727 57.706473214285715  31.818892045454547 57.40513392857142  C 32.12144886363636 57.103794642857146  32.27272727272727 56.71874999999999  32.27272727272727 56.25  L 32.27272727272727 53.035714285714285  C 32.27272727272727 52.566964285714285  32.12144886363636 52.181919642857146  31.818892045454547 51.880580357142854  C 31.516335227272727 51.57924107142858  31.12973484848485 51.42857142857142  30.65909090909091 51.42857142857142  L 27.43181818181818 51.42857142857142  C 26.96117424242425 51.42857142857142  26.574573863636363 51.57924107142858  26.272017045454547 51.880580357142854  Z M 18.909801136363637 70.26227678571429  C 19.212357954545453 69.9609375  19.363636363636363 69.57589285714286  19.363636363636363 69.10714285714285  L 19.363636363636363 65.89285714285715  C 19.363636363636363 65.42410714285714  19.212357954545453 65.0390625  18.909801136363637 64.73772321428571  C 18.60724431818182 64.43638392857143  18.22064393939394 64.28571428571429  17.75 64.28571428571429  L 14.522727272727273 64.28571428571429  C 14.052083333333334 64.28571428571429  13.665482954545455 64.43638392857143  13.362926136363637 64.73772321428571  C 13.060369318181818 65.0390625  12.90909090909091 65.42410714285714  12.90909090909091 65.89285714285715  L 12.90909090909091 69.10714285714285  C 12.90909090909091 69.57589285714286  13.060369318181818 69.9609375  13.362926136363637 70.26227678571429  C 13.665482954545455 70.56361607142857  14.052083333333334 70.71428571428571  14.522727272727273 70.71428571428571  L 17.75 70.71428571428571  C 18.22064393939394 70.71428571428571  18.60724431818182 70.56361607142857  18.909801136363637 70.26227678571429  Z M 18.909801136363637 57.40513392857142  C 19.212357954545453 57.103794642857146  19.363636363636363 56.71874999999999  19.363636363636363 56.25  L 19.363636363636363 53.035714285714285  C 19.363636363636363 52.566964285714285  19.212357954545453 52.181919642857146  18.909801136363637 51.880580357142854  C 18.60724431818182 51.57924107142858  18.22064393939394 51.42857142857142  17.75 51.42857142857142  L 14.522727272727273 51.42857142857142  C 14.052083333333334 51.42857142857142  13.665482954545455 51.57924107142858  13.362926136363637 51.880580357142854  C 13.060369318181818 52.181919642857146  12.90909090909091 52.566964285714285  12.90909090909091 53.035714285714285  L 12.90909090909091 56.25  C 12.90909090909091 56.71874999999999  13.060369318181818 57.103794642857146  13.362926136363637 57.40513392857142  C 13.665482954545455 57.706473214285715  14.052083333333334 57.857142857142854  14.522727272727273 57.857142857142854  L 17.75 57.857142857142854  C 18.22064393939394 57.857142857142854  18.60724431818182 57.706473214285715  18.909801136363637 57.40513392857142  Z M 18.909801136363637 44.54799107142858  C 19.212357954545453 44.246651785714285  19.363636363636363 43.86160714285714  19.363636363636363 43.39285714285714  L 19.363636363636363 40.17857142857142  C 19.363636363636363 39.70982142857142  19.212357954545453 39.324776785714285  18.909801136363637 39.0234375  C 18.60724431818182 38.722098214285715  18.22064393939394 38.57142857142858  17.75 38.57142857142858  L 14.522727272727273 38.57142857142858  C 14.052083333333334 38.57142857142858  13.665482954545455 38.722098214285715  13.362926136363637 39.0234375  C 13.060369318181818 39.324776785714285  12.90909090909091 39.70982142857142  12.90909090909091 40.17857142857142  L 12.90909090909091 43.39285714285714  C 12.90909090909091 43.86160714285714  13.060369318181818 44.246651785714285  13.362926136363637 44.54799107142858  C 13.665482954545455 44.84933035714286  14.052083333333334 45  14.522727272727273 45  L 17.75 45  C 18.22064393939394 45  18.60724431818182 44.84933035714286  18.909801136363637 44.54799107142858  Z M 18.909801136363637 31.69084821428571  C 19.212357954545453 31.389508928571427  19.363636363636363 31.00446428571428  19.363636363636363 30.53571428571429  L 19.363636363636363 27.321428571428573  C 19.363636363636363 26.852678571428562  19.212357954545453 26.467633928571427  18.909801136363637 26.16629464285714  C 18.60724431818182 25.86495535714286  18.22064393939394 25.71428571428571  17.75 25.71428571428571  L 14.522727272727273 25.71428571428571  C 14.052083333333334 25.71428571428571  13.665482954545455 25.86495535714286  13.362926136363637 26.16629464285714  C 13.060369318181818 26.467633928571427  12.90909090909091 26.852678571428562  12.90909090909091 27.321428571428573  L 12.90909090909091 30.53571428571429  C 12.90909090909091 31.00446428571428  13.060369318181818 31.389508928571427  13.362926136363637 31.69084821428571  C 13.665482954545455 31.9921875  14.052083333333334 32.14285714285714  14.522727272727273 32.14285714285714  L 17.75 32.14285714285714  C 18.22064393939394 32.14285714285714  18.60724431818182 31.9921875  18.909801136363637 31.69084821428571  Z M 18.909801136363637 18.83370535714286  C 19.212357954545453 18.532366071428573  19.363636363636363 18.14732142857143  19.363636363636363 17.678571428571427  L 19.363636363636363 14.464285714285714  C 19.363636363636363 13.99553571428571  19.212357954545453 13.610491071428575  18.909801136363637 13.309151785714286  C 18.60724431818182 13.0078125  18.22064393939394 12.857142857142861  17.75 12.857142857142861  L 14.522727272727273 12.857142857142861  C 14.052083333333334 12.857142857142861  13.665482954545455 13.0078125  13.362926136363637 13.309151785714286  C 13.060369318181818 13.610491071428575  12.90909090909091 13.99553571428571  12.90909090909091 14.464285714285714  L 12.90909090909091 17.678571428571427  C 12.90909090909091 18.14732142857143  13.060369318181818 18.532366071428573  13.362926136363637 18.83370535714286  C 13.665482954545455 19.13504464285714  14.052083333333334 19.28571428571429  14.522727272727273 19.28571428571429  L 17.75 19.28571428571429  C 18.22064393939394 19.28571428571429  18.60724431818182 19.13504464285714  18.909801136363637 18.83370535714286  Z M 44.72798295454545 83.11941964285714  C 45.03053977272727 82.81808035714286  45.18181818181818 82.43303571428571  45.18181818181818 81.96428571428571  L 45.18181818181818 72.32142857142857  C 45.18181818181818 71.85267857142858  45.03053977272727 71.46763392857143  44.72798295454545 71.16629464285715  C 44.42542613636364 70.86495535714285  44.03882575757576 70.71428571428571  43.56818181818182 70  L 27.43181818181818 70  C 26.96117424242425 70.71428571428571  26.574573863636363 70.86495535714285  26.272017045454547 71.16629464285715  C 25.969460227272727 71.46763392857143  25.81818181818182 71.85267857142858  25.81818181818182 72.32142857142857  L 25.81818181818182 81.96428571428571  C 25.81818181818182 82.43303571428571  25.969460227272727 82.81808035714286  26.272017045454547 83.11941964285714  C 26.574573863636363 83.42075892857143  26.96117424242425 83.57142857142857  27.43181818181818 83  L 43.56818181818182 83  C 44.03882575757576 83.57142857142857  44.42542613636364 83.42075892857143  44.72798295454545 83.11941964285714  Z M 44.72798295454545 57.40513392857142  C 45.03053977272727 57.103794642857146  45.18181818181818 56.71874999999999  45.18181818181818 56.25  L 45.18181818181818 53.035714285714285  C 45.18181818181818 52.566964285714285  45.03053977272727 52.181919642857146  44.72798295454545 51.880580357142854  C 44.42542613636364 51.57924107142858  44.03882575757576 51.42857142857142  43.56818181818182 51.42857142857142  L 40.34090909090909 51.42857142857142  C 39.870265151515156 51.42857142857142  39.48366477272727 51.57924107142858  39.18110795454545 51.880580357142854  C 38.87855113636364 52.181919642857146  38.72727272727273 52.566964285714285  38.72727272727273 53.035714285714285  L 38.72727272727273 56.25  C 38.72727272727273 56.71874999999999  38.87855113636364 57.103794642857146  39.18110795454545 57.40513392857142  C 39.48366477272727 57.706473214285715  39.870265151515156 57.857142857142854  40.34090909090909 57.857142857142854  L 43.56818181818182 57.857142857142854  C 44.03882575757576 57.857142857142854  44.42542613636364 57.706473214285715  44.72798295454545 57.40513392857142  Z M 44.72798295454545 44.54799107142858  C 45.03053977272727 44.246651785714285  45.18181818181818 43.86160714285714  45.18181818181818 43.39285714285714  L 45.18181818181818 40.17857142857142  C 45.18181818181818 39.70982142857142  45.03053977272727 39.324776785714285  44.72798295454545 39.0234375  C 44.42542613636364 38.722098214285715  44.03882575757576 38.57142857142858  43.56818181818182 38.57142857142858  L 40.34090909090909 38.57142857142858  C 39.870265151515156 38.57142857142858  39.48366477272727 38.722098214285715  39.18110795454545 39.0234375  C 38.87855113636364 39.324776785714285  38.72727272727273 39.70982142857142  38.72727272727273 40.17857142857142  L 38.72727272727273 43.39285714285714  C 38.72727272727273 43.86160714285714  38.87855113636364 44.246651785714285  39.18110795454545 44.54799107142858  C 39.48366477272727 44.84933035714286  39.870265151515156 45  40.34090909090909 45  L 43.56818181818182 45  C 44.03882575757576 45  44.42542613636364 44.84933035714286  44.72798295454545 44.54799107142858  Z M 44.72798295454545 31.69084821428571  C 45.03053977272727 31.389508928571427  45.18181818181818 31.00446428571428  45.18181818181818 30.53571428571429  L 45.18181818181818 27.321428571428573  C 45.18181818181818 26.852678571428562  45.03053977272727 26.467633928571427  44.72798295454545 26.16629464285714  C 44.42542613636364 25.86495535714286  44.03882575757576 25.71428571428571  43.56818181818182 25.71428571428571  L 40.34090909090909 25.71428571428571  C 39.870265151515156 25.71428571428571  39.48366477272727 25.86495535714286  39.18110795454545 26.16629464285714  C 38.87855113636364 26.467633928571427  38.72727272727273 26.852678571428562  38.72727272727273 27.321428571428573  L 38.72727272727273 30.53571428571429  C 38.72727272727273 31.00446428571428  38.87855113636364 31.389508928571427  39.18110795454545 31.69084821428571  C 39.48366477272727 31.9921875  39.870265151515156 32.14285714285714  40.34090909090909 32.14285714285714  L 43.56818181818182 32.14285714285714  C 44.03882575757576 32.14285714285714  44.42542613636364 31.9921875  44.72798295454545 31.69084821428571  Z M 44.72798295454545 18.83370535714286  C 45.03053977272727 18.532366071428573  45.18181818181818 18.14732142857143  45.18181818181818 17.678571428571427  L 45.18181818181818 14.464285714285714  C 45.18181818181818 13.99553571428571  45.03053977272727 13.610491071428575  44.72798295454545 13.309151785714286  C 44.42542613636364 13.0078125  44.03882575757576 12.857142857142861  43.56818181818182 12.857142857142861  L 40.34090909090909 12.857142857142861  C 39.870265151515156 12.857142857142861  39.48366477272727 13.0078125  39.18110795454545 13.309151785714286  C 38.87855113636364 13.610491071428575  38.72727272727273 13.99553571428571  38.72727272727273 14.464285714285714  L 38.72727272727273 17.678571428571427  C 38.72727272727273 18.14732142857143  38.87855113636364 18.532366071428573  39.18110795454545 18.83370535714286  C 39.48366477272727 19.13504464285714  39.870265151515156 19.28571428571429  40.34090909090909 19.28571428571429  L 43.56818181818182 19.28571428571429  C 44.03882575757576 19.28571428571429  44.42542613636364 19.13504464285714  44.72798295454545 18.83370535714286  Z M 57.63707386363636 70.26227678571429  C 57.93963068181818 69.9609375  58.09090909090909 69.57589285714286  58.09090909090909 69.10714285714285  L 58.09090909090909 65.89285714285715  C 58.09090909090909 65.42410714285714  57.93963068181818 65.0390625  57.63707386363636 64.73772321428571  C 57.33451704545455 64.43638392857143  56.94791666666668 64.28571428571429  56.47727272727273 64.28571428571429  L 53.25 64.28571428571429  C 52.77935606060606 64.28571428571429  52.39275568181818 64.43638392857143  52.09019886363636 64.73772321428571  C 51.78764204545455 65.0390625  51.63636363636364 65.42410714285714  51.63636363636364 65.89285714285715  L 51.63636363636364 69.10714285714285  C 51.63636363636364 69.57589285714286  51.78764204545455 69.9609375  52.09019886363636 70.26227678571429  C 52.39275568181818 70.56361607142857  52.77935606060606 70.71428571428571  53.25 70.71428571428571  L 56.47727272727273 70.71428571428571  C 56.94791666666668 70.71428571428571  57.33451704545455 70.56361607142857  57.63707386363636 70.26227678571429  Z M 57.63707386363636 57.40513392857142  C 57.93963068181818 57.103794642857146  58.09090909090909 56.71874999999999  58.09090909090909 56.25  L 58.09090909090909 53.035714285714285  C 58.09090909090909 52.566964285714285  57.93963068181818 52.181919642857146  57.63707386363636 51.880580357142854  C 57.33451704545455 51.57924107142858  56.94791666666668 51.42857142857142  56.47727272727273 51.42857142857142  L 53.25 51.42857142857142  C 52.77935606060606 51.42857142857142  52.39275568181818 51.57924107142858  52.09019886363636 51.880580357142854  C 51.78764204545455 52.181919642857146  51.63636363636364 52.566964285714285  51.63636363636364 53.035714285714285  L 51.63636363636364 56.25  C 51.63636363636364 56.71874999999999  51.78764204545455 57.103794642857146  52.09019886363636 57.40513392857142  C 52.39275568181818 57.706473214285715  52.77935606060606 57.857142857142854  53.25 57.857142857142854  L 56.47727272727273 57.857142857142854  C 56.94791666666668 57.857142857142854  57.33451704545455 57.706473214285715  57.63707386363636 57.40513392857142  Z M 57.63707386363636 44.54799107142858  C 57.93963068181818 44.246651785714285  58.09090909090909 43.86160714285714  58.09090909090909 43.39285714285714  L 58.09090909090909 40.17857142857142  C 58.09090909090909 39.70982142857142  57.93963068181818 39.324776785714285  57.63707386363636 39.0234375  C 57.33451704545455 38.722098214285715  56.94791666666668 38.57142857142858  56.47727272727273 38.57142857142858  L 53.25 38.57142857142858  C 52.77935606060606 38.57142857142858  52.39275568181818 38.722098214285715  52.09019886363636 39.0234375  C 51.78764204545455 39.324776785714285  51.63636363636364 39.70982142857142  51.63636363636364 40.17857142857142  L 51.63636363636364 43.39285714285714  C 51.63636363636364 43.86160714285714  51.78764204545455 44.246651785714285  52.09019886363636 44.54799107142858  C 52.39275568181818 44.84933035714286  52.77935606060606 45  53.25 45  L 56.47727272727273 45  C 56.94791666666668 45  57.33451704545455 44.84933035714286  57.63707386363636 44.54799107142858  Z M 57.63707386363636 31.69084821428571  C 57.93963068181818 31.389508928571427  58.09090909090909 31.00446428571428  58.09090909090909 30.53571428571429  L 58.09090909090909 27.321428571428573  C 58.09090909090909 26.852678571428562  57.93963068181818 26.467633928571427  57.63707386363636 26.16629464285714  C 57.33451704545455 25.86495535714286  56.94791666666668 25.71428571428571  56.47727272727273 25.71428571428571  L 53.25 25.71428571428571  C 52.77935606060606 25.71428571428571  52.39275568181818 25.86495535714286  52.09019886363636 26.16629464285714  C 51.78764204545455 26.467633928571427  51.63636363636364 26.852678571428562  51.63636363636364 27.321428571428573  L 51.63636363636364 30.53571428571429  C 51.63636363636364 31.00446428571428  51.78764204545455 31.389508928571427  52.09019886363636 31.69084821428571  C 52.39275568181818 31.9921875  52.77935606060606 32.14285714285714  53.25 32.14285714285714  L 56.47727272727273 32.14285714285714  C 56.94791666666668 32.14285714285714  57.33451704545455 31.9921875  57.63707386363636 31.69084821428571  Z M 57.63707386363636 18.83370535714286  C 57.93963068181818 18.532366071428573  58.09090909090909 18.14732142857143  58.09090909090909 17.678571428571427  L 58.09090909090909 14.464285714285714  C 58.09090909090909 13.99553571428571  57.93963068181818 13.610491071428575  57.63707386363636 13.309151785714286  C 57.33451704545455 13.0078125  56.94791666666668 12.857142857142861  56.47727272727273 12.857142857142861  L 53.25 12.857142857142861  C 52.77935606060606 12.857142857142861  52.39275568181818 13.0078125  52.09019886363636 13.309151785714286  C 51.78764204545455 13.610491071428575  51.63636363636364 13.99553571428571  51.63636363636364 14.464285714285714  L 51.63636363636364 17.678571428571427  C 51.63636363636364 18.14732142857143  51.78764204545455 18.532366071428573  52.09019886363636 18.83370535714286  C 52.39275568181818 19.13504464285714  52.77935606060606 19.28571428571429  53.25 19.28571428571429  L 56.47727272727273 19.28571428571429  C 56.94791666666668 19.28571428571429  57.33451704545455 19.13504464285714  57.63707386363636 18.83370535714286  Z " fill-rule="nonzero" fill="#73d5ff" stroke="none" transform="matrix(1 0 0 1 375 335 )" />
  </g>
</svg>