<?xml version="1.0" encoding="utf-8"?>
<svg version="1.1" xmlns:xlink="http://www.w3.org/1999/xlink" width="89px" height="80px" xmlns="http://www.w3.org/2000/svg">
  <g transform="matrix(1 0 0 1 -1540 -345 )">
    <path d="M 17 40  L 28 40  L 28 66  L 17 66  L 17 40  Z M 34 14  L 44 14  L 44 66  L 34 66  L 34 14  Z M 6 73  L 89 73  L 89 80  L 0 80  L 0 0  L 6 0  L 6 73  Z M 50 27  L 61 27  L 61 66  L 50 66  L 50 27  Z M 66 7  L 77 7  L 77 66  L 66 66  L 66 7  Z " fill-rule="nonzero" fill="#73d5ff" stroke="none" transform="matrix(1 0 0 1 1540 345 )" />
  </g>
</svg>